<svg width="51" height="33" viewBox="0 0 51 33" fill="none" xmlns="http://www.w3.org/2000/svg">
<path fill-rule="evenodd" clip-rule="evenodd" d="M15.8071 16.3808C15.8939 16.59 16.0651 16.7514 16.2759 16.823L24.8684 19.742C24.976 19.7786 25.0885 19.7899 25.198 19.7769C25.3021 19.7645 25.4035 19.73 25.4953 19.6743L32.9561 15.1463C33.1557 15.0252 33.2888 14.8165 33.3171 14.5801C33.3455 14.3436 33.2661 14.1055 33.1016 13.934L22.9302 3.32948C22.7565 3.14845 22.5093 3.06314 22.2657 3.10108C22.0224 3.13889 21.8136 3.29492 21.7053 3.5198L15.8234 15.7333C15.7262 15.9352 15.7202 16.1715 15.8071 16.3808Z" fill="#577A30"/>
<path fill-rule="evenodd" clip-rule="evenodd" d="M25.6777 22.0343C25.6381 21.7409 25.4396 21.4935 25.1654 21.3958L2.51159 13.3229C2.1974 13.211 1.85095 13.3186 1.65471 13.5892C1.45861 13.8599 1.45782 14.2313 1.6528 14.508L12.8598 30.4092C13.0292 30.6496 13.3065 30.765 13.5745 30.733C13.6896 30.7193 13.803 30.6784 13.9053 30.6084L25.3522 22.78C25.5912 22.6165 25.7172 22.3277 25.6777 22.0343Z" fill="#577A30"/>
<path fill-rule="evenodd" clip-rule="evenodd" d="M47.115 7.97093C46.8582 7.75112 46.4941 7.72492 46.2152 7.90618L13.2671 29.3119C12.9689 29.5056 12.8437 29.8854 12.9654 30.2283C13.0871 30.5714 13.4231 30.7846 13.7757 30.7443L39.3917 27.8166L39.3954 27.8162C39.6684 27.7836 39.9016 27.6053 40.0047 27.3455L47.3368 8.86711C47.4613 8.5534 47.3715 8.19069 47.115 7.97093Z" fill="#577A30"/>
</svg>
